<svg xmlns="http://www.w3.org/2000/svg" width="256" height="256"><path fill="#1976D2" fill-opacity=".043" fill-rule="evenodd" d="M0 128.004v128.004l128.25-.254 128.25-.254.254-127.75L257.008 0H0zm.485.496c0 70.4.119 99.053.265 63.672s.146-92.98 0-128S.485 58.1.485 128.5"/><path fill="#1976D2" fill-opacity=".148" fill-rule="evenodd" d="M125.625 7.107c-15.56.848-56.943 4.425-66.932 5.786-9.337 1.273-9.355 1.325-6.829 19.288 3.077 21.882 4.117 39.542 4.127 70.046L56 128.954l-2.394 1.569c-1.317.862-3.984 1.826-5.927 2.142-2.909.472-3.99.115-6.129-2.024l-2.597-2.597 3.379-6.772c1.858-3.725 3.695-8.079 4.081-9.676 1.602-6.624-4.753-12.569-9.86-9.223l-2.458 1.611-2.982-6.242c-3.341-6.996-7.385-10.214-11.527-9.174-1.377.345-3.023 1.254-3.658 2.019s-1.516 1.168-1.957.895c-1.61-.995-6.027 1.547-7.214 4.151-.67 1.471-2.464 3.92-3.987 5.444-3.592 3.591-3.666 8.758-.247 17.173 3.433 8.447 6.923 13.216 12.044 16.455 2.37 1.5 4.766 3.73 5.325 4.957 1.488 3.266 7.804 9.987 11.576 12.318 3.978 2.459 13.5 3.553 19.282 2.216l4.25-.983-.029 9.643c-.016 5.304-.459 15.494-.984 22.644-1.011 13.77-.805 15.972 1.581 16.888.82.314 8.79.871 17.712 1.237l16.22.664v16.705l-5.326 1.553c-7.367 2.148-14.118 8.836-14.31 14.177-.084 2.32-.303 2.908-.57 1.525-.377-1.959-.91-2.189-4.114-1.778-2.024.259-6.674.741-10.334 1.07s-7.453 1.182-8.43 1.897c-1.682 1.23-1.667 1.357.287 2.403 4.875 2.609 37.983 5.329 62.283 5.118 8.787-.076 15.685.325 17.481 1.016 4.776 1.836 14.596 2.333 20.533 1.037 3.025-.66 13.15-1.588 22.5-2.061 36.183-1.834 51.683-4.65 43.248-7.857-1.977-.751-20.364-3.094-24.287-3.094-.804 0-1.461.867-1.461 1.927s-1.186 2.861-2.635 4c-2.357 1.855-3.857 2.054-14.25 1.896l-11.615-.178 12.099-.572c13.684-.648 15.401-1.414 15.401-6.869 0-2.879-.804-4.312-4.25-7.576l-4.25-4.025 6.254-5.964c3.77-3.595 7.258-8.085 8.78-11.302 1.762-3.725 3.106-5.337 4.448-5.337 3.257 0 7.044-2.236 7.489-4.421.233-1.144.705-4.666 1.048-7.829.596-5.484.755-5.75 3.427-5.75 15.602 0 28.048-19.782 21.065-33.479l-1.989-3.901 6.36-11.06c3.499-6.083 8.033-14.097 10.076-17.81s4.125-6.75 4.628-6.75c1.735 0 1.216 1.133-8.807 19.242-6.635 11.986-7.307 15.188-3.06 14.578 2.424-.348 7.35-8.13 15.35-24.247 3.44-6.931 4.405-9.951 4.313-13.5-.093-3.579-.256-3.991-.75-1.898-.62 2.625-.672 2.641-2.839.874-1.215-.991-1.928-2.08-1.586-2.422s.551-2.399.466-4.571.291-4.225.836-4.562.991-1.956.991-3.598c0-3.435-3.522-7.487-7.34-8.445-3.199-.803-7.868 1.394-9.147 4.303-.57 1.296-1.871 2.246-3.076 2.246-3.053 0-5.24 2.884-14.406 19-4.536 7.975-8.328 14.592-8.427 14.705s-1.792-.349-3.762-1.026l-3.581-1.231-.13-21.474c-.218-36.129-1.08-50.84-3.279-55.933-2.443-5.661-28.471-32.194-34.393-35.061-4.569-2.212-12.968-2.391-40.834-.873M125 13.661c-2.475.171-11.7.772-20.5 1.336-15.76 1.009-44.978 3.775-47.073 4.456-.741.241-.545 3.867.632 11.698.939 6.242 2.209 17.94 2.824 25.995 2.029 26.608 1.084 113.457-1.464 134.495l-.622 5.141 14.851.808c8.169.445 32.611.774 54.316.732 37.374-.073 39.536-.176 40.815-1.949.743-1.03 5.752-9.437 11.132-18.681l9.781-16.808-1.859-3.756c-2.3-4.65-1.604-9.084 1.991-12.679 1.419-1.419 3.839-2.832 5.378-3.139l2.798-.56v-29.216c0-31.63-.944-60.242-1.935-58.639-.34.551-5.559 1.127-11.598 1.281-8.871.226-11.427-.034-13.315-1.357-2.132-1.493-2.175-1.678-.494-2.112 1.1-.284.583-.522-1.286-.591-1.72-.064-3.571-.678-4.113-1.366-.542-.687-1.262-8.274-1.6-16.859-.337-8.585-.897-16.347-1.243-17.25-.552-1.438-2.627-1.619-16.773-1.466-8.879.096-18.168.314-20.643.486m47.758 7.357 3.258 3.582-3.662-.427-3.661-.428.654 4.767c.359 2.622.653 7.179.653 10.128V44l7.25-.088c3.988-.048 9.329-.385 11.871-.75l4.621-.662-12.121-12.532c-6.667-6.892-10.655-10.919-8.863-8.95M102.5 38.194c-17.322.639-24.362 1.246-25.3 2.182-1.067 1.063-1.028 1.522.218 2.556 2.121 1.76 74.391-.585 76.45-2.481 4.056-3.733-2.986-4.042-51.368-2.257m81.78 12.542c2.629.207 6.679.204 9-.005 2.321-.21.17-.379-4.78-.376s-6.849.175-4.22.381m-75.726 3.362C81.974 54.933 79 55.265 79 57.397c0 3.001 2.602 3.607 13.102 3.053 5.719-.302 21.648-.94 35.398-1.417s25.787-1.177 26.75-1.557c2.181-.86 2.276-3.06.168-3.869-1.825-.7-11.11-.601-45.864.491m41.696 12.933c-2.447.984-2.998 4.131-1 5.716.688.545 3.434 1.225 6.104 1.511 2.713.291 6.152 1.48 7.797 2.695 5.707 4.22 8.914.655 4.322-4.803-1.687-2.004-4.446-3.658-7.73-4.634-5.77-1.713-6.362-1.744-9.493-.485M96.116 70.63c-5.341 2.661-7.874 5.952-6.779 8.806.83 2.162 3.214 1.956 6.635-.573 1.589-1.175 5.059-2.687 7.709-3.359 5.295-1.343 6.847-3.913 3.737-6.188-2.657-1.942-5.411-1.622-11.302 1.314m52.655 19.073c-5.068 3.221-7.131 12.106-4.355 18.751 4.835 11.571 19.584 7.1 19.584-5.936 0-10.189-8.331-17.198-15.229-12.815m-48.883.797c-6.878 3.738-7.351 17.409-.792 22.927 4.341 3.653 8.285 3.392 12.504-.827 2.983-2.983 3.4-4.029 3.4-8.532 0-6.712-2.106-11.554-5.872-13.502-3.689-1.908-5.824-1.923-9.24-.066m-79.449 7.75c1.848 8.708 1.87 9.75.209 9.75-.933 0-2.684-2.112-4.148-5-1.394-2.75-2.976-5-3.517-5-1.288 0-1.24.583.528 6.409 2.984 9.838.694 13.31-3.324 5.039-2.495-5.135-4.716-5.093-3.877.074.589 3.629 5.988 15.042 8.353 17.657.835.924 3.055 2.408 4.933 3.299 2 .95 4.211 3.152 5.341 5.321 2.467 4.737 6.28 8.745 10.295 10.821 2.457 1.27 4.906 1.519 10.903 1.108 4.255-.291 8.215-.826 8.8-1.188S56 143.647 56 140.915v-4.966l-2.95 1.525c-6.722 3.476-14.37 1.153-18.388-5.585l-2.458-4.122 3.986-8.307c5.548-11.562 4.861-13.557-2.204-6.404-3.017 3.055-6.235 6.655-7.149 7.999-1.296 1.905-1.935 2.182-2.892 1.253-.966-.937-.546-2.255 1.971-6.178 3.033-4.725 3.139-5.211 2.038-9.302C26.245 100.482 23.186 95 21.355 95c-1.285 0-1.468.647-.916 3.25m84.955-.833c-.828 2.157.323 4.844 1.857 4.333.687-.229 1.249-1.467 1.249-2.75 0-2.741-2.227-3.876-3.106-1.583m48.786.833c.176 1.237.995 2.25 1.82 2.25s1.644-1.013 1.82-2.25c.245-1.732-.174-2.25-1.82-2.25s-2.065.518-1.82 2.25M.286 108.5c.008 2.75.202 3.756.432 2.236s.223-3.77-.014-5-.425.014-.418 2.764m146 15.488c.423 1.616-.163 2.159-3.133 2.905-11.632 2.921-25.866 1.918-29.078-2.049-1.756-2.168-1.905-2.186-4.446-.521-3.257 2.135-3.33 3.46-.256 4.629 1.395.53 2.66 2.067 3.069 3.725 1.422 5.775 5.615 11.446 9.904 13.393 11.455 5.201 22.571-.267 25.911-12.745.729-2.724 1.921-4.541 3.43-5.228 4.218-1.922 2.161-6.097-3.004-6.097-2.418 0-2.827.34-2.397 1.988m58.521 6.537-.422 3.616 1.784-2.321q2.815-3.66.133-4.553c-.59-.196-1.263 1.27-1.495 3.258M52 139.11c-1.266.91-1.227.991.25.516 1.392-.448 1.75.026 1.75 2.322 0 1.587-.562 3.112-1.25 3.39-.747.301-.545.536.5.583 1.388.063 1.75-.748 1.75-3.921 0-4.184-.514-4.679-3-2.89m-6.75 7.579c.962.252 2.538.252 3.5 0 .962-.251.175-.457-1.75-.457s-2.712.206-1.75.457m148.781 1.085c-1.646 1.333-2.109 2.625-1.861 5.192l.33 3.418 2.812-5.192c2.912-5.375 2.498-6.479-1.281-3.418m13.126 5.537c-.843 1.016-.346 1.581 2.205 2.503 4.212 1.523 8.391 5.833 7.002 7.222-.68.68-2.13.544-4.437-.416-1.885-.785-5.002-1.583-6.927-1.773-2.947-.292-3.5-.032-3.5 1.649 0 1.344 1.506 2.814 4.611 4.5 8.557 4.648 9.41 6.25 3.91 7.35-3.927.785-3.907 2.654.029 2.654 5.834 0 11.582-4.482 14.402-11.232 1.903-4.554 1.952-5.86.196-5.186-.75.287-2.11-.638-3.054-2.08-3.471-5.297-11.849-8.309-14.437-5.191m16.858.38c.009.445.452 1.484.985 2.309.835 1.293.971 1.266.985-.191.008-.93-.435-1.969-.985-2.309s-.993-.254-.985.191M92.247 164.25c-3.579 3.697-5.701 8.295-6.74 14.598-.699 4.242-.793 4.333-3.861 3.719-6.402-1.281-7.132-1.164-7.468 1.204-.257 1.81.442 2.59 3.452 3.848 2.076.867 5.158 1.353 6.848 1.078 1.803-.292 3.865.08 4.989.902 4.367 3.193 10.472 1.21 16.986-5.517 4.545-4.693 5.547-5.007 5.547-1.737 0 5.025 7.019 7.431 11.835 4.058 1.916-1.342 2.76-1.399 5.275-.358 3.951 1.637 10.011-.112 12.836-3.704 4.143-5.266 1.11-8.249-4.008-3.942-3.493 2.939-6.111 3.302-7.938 1.101-1.718-2.07-4.706-1.876-7.727.5-3.519 2.768-4.273 2.524-4.273-1.378 0-7.742-7.56-7.251-15.859 1.03-6.471 6.459-9.99 7.326-4.715 1.163 5.572-6.51 7.127-14.262 3.574-17.815-2.824-2.824-5.129-2.494-8.753 1.25m3.446 4.537C94.189 170.448 91 177.111 91 178.59c0 1.066 3.021-1.762 4.164-3.897 1.122-2.096 2.883-7.693 2.421-7.693-.151 0-1.003.804-1.892 1.787M96.158 206c0 1.375.227 1.938.504 1.25.278-.687.278-1.812 0-2.5-.277-.687-.504-.125-.504 1.25m30.592-1.22-12.75.28.058 12.72c.049 10.819 1.479 25.277 1.827 18.47.113-2.216.316-2.25 13.6-2.25h13.484l-.539-6.25c-.661-7.669-2.5-23.215-2.749-23.235-.099-.008-5.919.111-12.931.265m23.5-.064c1.512.229 3.988.229 5.5 0s.275-.416-2.75-.416-4.262.187-2.75.416m14.505 1.784c.263 1.375.598 2.5.745 2.5s.482-1.125.745-2.5c.299-1.564.02-2.5-.745-2.5s-1.044.936-.745 2.5m-57.523 1.5c0 1.925.206 2.713.457 1.75.252-.963.252-2.537 0-3.5-.251-.963-.457-.175-.457 1.75m50.926 1c0 1.375.227 1.938.504 1.25.278-.687.278-1.812 0-2.5-.277-.687-.504-.125-.504 1.25m-10.74 5.897c.32 3.518.582 9.705.582 13.75V236h4.8c2.64 0 5.34-.54 6-1.2.769-.769 1.2-4.695 1.2-10.929 0-12.244-.441-12.844-9.75-13.288-.963-.046-2.124-.533-2.582-1.083s-.57 1.879-.25 5.397m-52.235 4.853.317 7.75-4.583.138c-2.521.076-5.896.821-7.5 1.655-3.427 1.782-8.015 6.442-7.173 7.285.322.322 7.834.26 16.694-.137 14.526-.651 16.055-.888 15.568-2.423-.297-.935-.619-6.272-.716-11.86L107.614 212H94.866zm73.651 13.149-4.334 4.128 7.75-.159c4.262-.088 7.75-.456 7.75-.818s-1.537-2.148-3.416-3.968l-3.416-3.311zm-97.101 9.225c.679.684 1.486.991 1.793.683.308-.308-.247-.867-1.233-1.243-1.425-.542-1.54-.428-.56.56m54.017-.462c.688.278 1.813.278 2.5 0 .688-.277.125-.504-1.25-.504s-1.937.227-1.25.504m20.018.506c.582.582 1.647.86 2.369.62.749-.25.295-.703-1.057-1.057-1.663-.435-2.054-.305-1.312.437m-41.518.521c.963.252 2.537.252 3.5 0 .963-.251.175-.457-1.75-.457s-2.713.206-1.75.457m29 0c.963.252 2.537.252 3.5 0 .963-.251.175-.457-1.75-.457s-2.713.206-1.75.457m-52.461 1.052c3.459.196 8.859.195 12-.003s.311-.358-6.289-.356-9.17.164-5.711.359"/><path fill="#1976D2" fill-opacity=".606" fill-rule="evenodd" d="M144.5 6.707c-20.14.517-71.511 4.545-88.278 6.922-2.568.364-4.649 1.301-5.207 2.343-.609 1.138-.265 6.003.997 14.105 3.423 21.973 5.566 64.368 4.384 86.752l-.683 12.937-3.39 1.617c-4.863 2.319-8.576 2.041-11.287-.845l-2.312-2.461 3.638-7.363c4.145-8.39 4.78-14.371 1.809-17.059-2.228-2.016-6.128-2.138-8.68-.272-1.754 1.282-2.058.971-4.165-4.25-3.699-9.167-8.845-12.118-15.172-8.699-1.46.789-3.862 1.69-5.337 2.003-1.483.314-2.97 1.469-3.323 2.583-.352 1.108-2.07 3.352-3.817 4.986-2.811 2.628-3.171 3.578-3.124 8.233.075 7.324 5.939 19.444 11.598 23.969 5.653 4.521 7.898 6.883 11.062 11.637 1.492 2.243 4.611 5.332 6.93 6.866 3.968 2.623 4.865 2.789 15.12 2.789h10.902l-.561 7.5c-.308 4.125-.846 14.804-1.195 23.732l-.635 16.232 2.678 1.018c1.473.56 5.505 1.018 8.959 1.018 3.455 0 10.401.292 15.435.65l9.154.649v17.445l-3.826.612c-4.648.743-11.628 5.267-14.24 9.23-2.265 3.437-2.505 7.695-.525 9.338 1.941 1.611 34.119 1.717 38.933.128 4.386-1.447 4.9-2.932 3.652-10.552-1.113-6.795-1.273-17.177-.352-22.75l.62-3.75h12.801c11.324 0 12.863.202 13.331 1.75.805 2.661 2.606 21.78 2.606 27.656 0 5.952 1.168 7.594 5.4 7.594 2.403 0 2.75.249 1.745 1.25-1.137 1.132-10.336 1.319-22.645.459-2.391-.166-3.062.229-3.307 1.945-.416 2.922 3.99 4.298 14.307 4.468 9.667.16 15.336-1.254 18.49-4.611 2.279-2.426 2.762-2.507 14.156-2.365 12.816.159 14.854-.513 14.854-4.9 0-3.315-3.299-8.533-6.466-10.228-1.394-.746-2.534-1.662-2.534-2.037s2.696-3.026 5.992-5.893c4.172-3.628 6.826-6.987 8.739-11.058 2.407-5.124 3.164-5.914 6.132-6.395 5.888-.956 7.137-2.951 7.137-11.398 0-7.34.036-7.445 2.367-6.86 1.302.327 4.718-.104 7.592-.958 13.505-4.01 20.525-19.947 14.423-32.743l-1.598-3.352 8.009-13.912c4.405-7.652 8.812-15.599 9.793-17.662 1.708-3.59 4.415-5.123 4.413-2.5 0 .688-3.368 7.325-7.483 14.75-7.185 12.963-8.946 18.018-6.266 17.985 2.3-.028 3.362-1.422 10.205-13.391 7.295-12.762 10.627-20.867 10.409-25.319-.116-2.369-.2-2.445-.571-.518-.399 2.075-.602 2.14-2.518.798-1.657-1.161-2.075-2.495-2.041-6.521.024-2.783.58-5.708 1.237-6.499.693-.835.901-2.404.497-3.737-2.13-7.016-10.205-9.25-14.629-4.048-1.286 1.513-3.689 3.209-5.339 3.77-2.485.845-4.58 3.764-12.202 17-8.544 14.836-9.398 15.965-11.933 15.767-1.503-.118-3.26-.416-3.906-.664-.849-.326-1.378-10.362-1.913-36.257-.657-31.857-.953-36.378-2.679-40.991-1.566-4.186-4.676-7.984-16.153-19.726C170 9.596 164.658 5.843 158.5 6.234c-1.65.105-7.95.318-14 .473M133 13.026c-27.54 1.044-75.404 5.045-76.776 6.417-.168.168.38 4.749 1.219 10.181 2.924 18.947 3.651 30.113 4.225 64.876.519 31.471-.508 73.472-2.32 94.906l-.615 7.284 5.383.668c9.246 1.148 70.562 1.967 88.169 1.178l16.785-.752 2.098-4.142c1.154-2.278 5.88-10.546 10.501-18.373 8.323-14.096 8.388-14.259 6.867-17.2-3.467-6.704-.815-13.832 5.98-16.074l3.484-1.15.138-10.173c.274-20.251-.202-64.361-.782-72.422l-.593-8.25h-14.858c-14.324 0-14.91-.081-16.272-2.25-1-1.591-1.557-6.879-1.902-18.046-.269-8.687-.656-15.957-.86-16.156-1.066-1.037-11.499-1.219-29.871-.522m35.786 16.52c.25 7.675.564 14.08.699 14.235.134.154 6.013.154 13.065 0l12.822-.281-13.521-13.954-13.52-13.954zm-19.681 38.827c-2.089 2.517-.219 4.335 5.109 4.966 2.931.347 6.727 1.68 8.922 3.133 4.291 2.839 5.497 3.09 6.143 1.278.867-2.429-2.278-6.571-6.567-8.648-4.944-2.393-11.916-2.766-13.607-.729m-52.69 2.048C93.081 71.873 89 76.411 89 78.666c0 2.123 2.859 2.765 4.787 1.076 2.941-2.577 7.99-4.742 11.056-4.742 3.069 0 4.529-1.867 3.519-4.5-.731-1.905-7.648-1.95-11.947-.079m5.085 19.503c-4.135 1.737-5.899 4.944-6.261 11.383-.277 4.93.072 6.861 1.707 9.468 5.185 8.264 15.76 5.64 17.639-4.376 1.854-9.885-5.808-19.532-13.085-16.475m45.423 1.999c-2.845 2.845-3.535 5.581-3.046 12.077.74 9.814 10.084 14.465 16.107 8.017 3.409-3.649 4.465-8.637 2.989-14.117-2.397-8.901-10.215-11.812-16.05-5.977M20.407 95.382c-.349.91-.134 3.646.479 6.079 1.425 5.659 1.401 6.539-.178 6.539-.71 0-2.516-2.498-4.014-5.55C14.05 97.057 12 96.042 12 100.125c0 1.103.398 2.764.884 3.691C14.36 106.629 15.286 114 14.163 114c-.557 0-2.059-1.879-3.338-4.177-5.501-9.882-6.765-2.315-1.462 8.751 3.231 6.742 7.592 11.642 11.451 12.867 1.004.319 2.527 2.05 3.384 3.848 2.234 4.685 6.544 9.524 10.171 11.418 3.275 1.711 12.528 2.134 18.413.841 3.137-.689 3.218-.842 3.218-6.08v-5.372l-4.313 1.598c-5.991 2.221-10.722 1.17-14.596-3.243-4.447-5.065-4.743-7.482-1.579-12.882C38.3 116.812 41.386 108 40.264 108c-2.415 0-8.852 6.318-13.756 13.5-1.274 1.867-1.411 1.882-2.053.225-.44-1.136.254-3.198 1.929-5.728 1.439-2.175 2.616-4.847 2.616-5.938 0-3.223-3.882-12.642-6-14.559-1.8-1.629-2.01-1.639-2.593-.118m134.281.264c-.379.378-.688 1.737-.688 3.021 0 1.691.568 2.333 2.066 2.333 1.653 0 2.003-.536 1.75-2.673-.316-2.674-1.835-3.975-3.128-2.681M105.362 97.5c-.804 2.095.291 4.5 2.048 4.5 2.006 0 2.847-1.615 2.087-4.009-.742-2.34-3.309-2.645-4.135-.491M.232 108c0 1.925.206 2.713.457 1.75.252-.963.252-2.537 0-3.5-.251-.963-.457-.175-.457 1.75M146.5 123c-.34.55-.339 1.451.001 2.002 1.208 1.954-5.147 3.304-16.001 3.401-12.1.107-16.5-.672-16.5-2.922 0-1.958-3.443-1.895-5.438.1-1.868 1.868-1.207 3.419 1.458 3.419 1.361 0 2.198 1.096 2.939 3.849 2.619 9.726 10.569 15.727 19.527 14.739 7.625-.841 13.251-6.184 15.567-14.783.687-2.553 1.892-4.278 3.498-5.01 2.942-1.341 3.159-3.344.515-4.76-2.448-1.31-4.769-1.325-5.566-.035m57.522 7.715.022 4.785L206 133c2.497-3.192 2.497-4.664 0-6-1.872-1.002-1.999-.763-1.978 3.715m-78.272 6.447c-1.513.553-2.75 1.588-2.75 2.3 0 2.059 5.621 3.852 10.166 3.243 4.362-.585 8.541-3.752 7.396-5.604-.837-1.355-11.05-1.313-14.812.061m68.078 9.874c-2.03 1.185-3.42 6.772-2.03 8.162q1 1.003 3.602-3.436c1.43-2.441 2.6-4.736 2.6-5.1 0-.958-2.231-.758-4.172.374M207.2 152.2c-1.9 1.9-1.454 2.667 2.513 4.325 5.184 2.165 7.551 4.452 6.242 6.029-.828.999-1.585.978-3.747-.1-1.489-.743-4.62-1.656-6.958-2.03-3.793-.607-4.25-.468-4.25 1.293 0 2.391 2.118 4.355 7.75 7.187 2.338 1.175 4.25 2.851 4.25 3.723 0 .941-.564 1.371-1.385 1.055-1.715-.658-5.861 2.11-5.073 3.386.949 1.536 4.556 1.063 9.256-1.212 7.659-3.708 12.844-14.697 10.098-21.401-.902-2.2-1.314-2.521-1.617-1.257-.223.933.012 2.508.523 3.5 2.039 3.961-.02 4.384-3.567.733-5.251-5.408-11.521-7.745-14.035-5.231M93.607 163.095c-3.61 2.839-6.593 8.991-7.315 15.085l-.597 5.044-5.848-.662c-4.814-.544-5.847-.398-5.847.832 0 2.442 4.143 4.606 8.818 4.606 2.405 0 5.651.755 7.213 1.678 4.062 2.399 9.838.461 16.111-5.407 2.689-2.516 5.012-4.393 5.164-4.172.151.22.714 1.743 1.252 3.383 1.454 4.435 5.546 5.557 10.457 2.867 2.108-1.155 4.205-1.745 4.659-1.311.892.853 3.542 1.26 6.999 1.077 2.892-.153 8.327-4.817 8.327-7.145 0-3.093-2.013-3.332-4.886-.579-3.181 3.047-5.223 3.248-9.189.906-2.774-1.639-2.996-1.62-5.864.5-3.833 2.833-5.061 2.781-5.061-.215 0-4.508-.988-5.582-5.132-5.582-3.406 0-4.762.785-10.368 6-3.547 3.3-7.136 6-7.975 6-2.189 0-1.914-.765 1.504-4.183 3.673-3.673 5.482-7.093 6.383-12.067.575-3.178.297-4.132-1.821-6.25-3.036-3.036-3.598-3.069-6.984-.405m1.537 5.232C93.769 169.983 91 176.53 91 178.123c0 1.961 4.16-2.349 5.638-5.841.749-1.77 1.362-3.682 1.362-4.25 0-1.445-1.544-1.286-2.856.295M198.638 194.5c-.316.825-.139 1.5.393 1.5.533 0 .969-.675.969-1.5s-.177-1.5-.393-1.5-.652.675-.969 1.5m-33.388 9.22c-1.418.507-1.642 4.114-.378 6.107.573.904 1.037.124 1.454-2.447.685-4.224.668-4.283-1.076-3.66m-70.107 12.03.357 11.75-3.768-.33c-4.809-.422-11.98 2.965-14.868 7.022l-2.151 3.019 16.561-.355c9.108-.196 16.737-.581 16.953-.856s.205-7.588-.024-16.25l-.417-15.75H94.787zm51.228-6.5c.357 2.887.937 10.052 1.288 15.922.581 9.724.824 10.722 2.739 11.237 7.802 2.094 10.093-.752 9.841-12.225-.104-4.776-.47-11.272-.813-14.434l-.622-5.75h-13.083zM168.5 233l-3.906 4h7.703c4.835 0 7.703-.401 7.703-1.077 0-1.286-5.472-6.923-6.72-6.923-.481 0-2.632 1.8-4.78 4"/><path fill="#1976D2" fill-opacity=".512" fill-rule="evenodd" d="M122 8.092c-37.269 2.398-68.039 5.697-69.942 7.498-1.254 1.187-1.157 3.482.749 17.637 2.97 22.059 4.36 47.878 3.996 74.218l-.303 21.944-3.262 1.905c-5.027 2.935-10.044 2.687-12.686-.626l-2.182-2.736 3.279-6.515c3.91-7.769 4.996-12.706 3.511-15.966-1.445-3.172-5.47-4.133-8.632-2.061-1.352.885-2.637 1.61-2.857 1.61s-1.208-2.138-2.197-4.75c-2.54-6.714-4.133-8.866-7.634-10.316-2.561-1.061-3.577-1.018-6.201.259-1.727.84-4.479 1.936-6.118 2.434-1.638.498-3.494 1.94-4.124 3.203-.63 1.264-2.385 3.592-3.9 5.173-2.485 2.594-2.71 3.417-2.297 8.398.671 8.092 6.715 19.842 12.13 23.584 5.322 3.677 6.081 4.469 10.068 10.514 5.903 8.949 17.958 12.841 29.51 9.527l3.396-.973-.684 17.223c-.376 9.473-.919 20.149-1.206 23.724s-.109 7.103.397 7.84c.676.986 5.454 1.515 18.065 2 9.43.363 17.141.998 17.135 1.41S90 208.732 90 213.293v8.292l-4.25 1.138c-8.363 2.238-16.527 10.162-15.142 14.696 1.464 4.786 1.727 4.841 20.862 4.391 11.191-.264 18.851-.873 20.194-1.607 2.127-1.161 2.155-1.486 1.599-18.692L112.697 204h28.04l.643 4.25c.354 2.338.93 9.956 1.28 16.93s.972 13.225 1.384 13.891c.411.665 2.482 1.527 4.602 1.913l3.854.704-2.815 1.156c-3.27 1.343-14.54 1.491-19.833.26-6.994-1.625-8.08 2.906-1.157 4.828 9.154 2.542 25.954.203 28.565-3.976 1.094-1.752 2.389-1.956 12.399-1.956 6.147 0 11.902-.278 12.787-.618 4.754-1.824 3.505-8.721-2.493-13.769l-3.32-2.793 6.202-5.975c3.653-3.52 7.434-8.415 9.198-11.911 2.582-5.115 3.381-5.934 5.79-5.934 5.233 0 6.588-2.011 7.012-10.402l.384-7.598 4.14-.022c8.021-.043 16.764-6.22 20.09-14.196 2.235-5.358 2.015-14.509-.446-18.546l-1.99-3.264 8.743-15.365c4.809-8.451 9.532-16.807 10.495-18.569 1.844-3.374 4.478-3.665 3.924-.434-.179 1.043-3.667 7.853-7.75 15.133-4.084 7.281-7.425 13.892-7.425 14.691 0 2.171 2.011 2.998 3.503 1.44 2.399-2.504 14.494-24.504 16.16-29.393 1.635-4.797 1.631-4.825-.817-6.931-2-1.721-2.472-3.086-2.536-7.341-.044-2.875.319-5.474.805-5.774 1.412-.873 1.025-5.785-.644-8.167-3.269-4.667-12.289-3.562-13.963 1.711-.41 1.295-1.511 2.027-3.045 2.027-2.98 0-4.335 1.808-14.242 19l-7.779 13.5-3.876-.238c-2.131-.131-4.02-.383-4.197-.56s-.757-16.72-1.29-36.762c-.635-23.915-1.4-37.815-2.227-40.44-.946-3.008-4.962-7.771-16.185-19.198-8.21-8.358-16.399-15.896-18.198-16.75-3.656-1.735-21.753-1.922-44.469-.46m-2 4.998c-27.676 1.568-62.455 5.031-63.774 6.35-.308.309.181 5.624 1.088 11.811S59.481 48.35 60.113 55.5c1.523 17.201 1.466 87.306-.093 115L58.641 195c-.14 2.489-.091 2.503 10.859 3.123 15.011.85 94.405.844 97.457-.008 1.818-.507 4.057-3.541 8.599-11.65 3.378-6.031 8.205-14.338 10.726-18.46 4.095-6.696 4.427-7.669 3.108-9.126-2.314-2.557-2.818-8.151-1.043-11.583 1.397-2.701 3.163-3.826 8.903-5.671 1.613-.518 1.74-2.652 1.62-27.344-.072-14.729-.41-35.331-.75-45.781l-.62-19-15-.015c-8.25-.008-15.495-.33-16.1-.716-.665-.424-1.374-6.589-1.793-15.571-.38-8.178-1.042-16.181-1.47-17.784l-.778-2.914-13.93-.116c-7.661-.064-20.454.254-28.429.706m48.603 16.41c.364 8.25.747 15.107.851 15.238.42.529 25.542-1.09 25.497-1.642-.027-.328-6.115-6.896-13.529-14.596l-13.48-14zm-18.451 38.385c-2.16 1.369-.937 4.582 1.858 4.885 6.736.729 9.173 1.513 11.94 3.841 3.19 2.685 5.05 2.47 5.05-.581 0-5.051-14.11-11.148-18.848-8.145m-52.007 2.161C93.406 71.993 90 75.113 90 77.509q-.002 5.355 5.098 1.062c2.989-2.515 4.841-3.224 9.902-3.791 1.925-.216 2.5-.855 2.5-2.78 0-2.15-.49-2.529-3.5-2.711-1.925-.115-4.56.225-5.855.757m143.48 18.752c-.701 1.134.509 2.71 3.146 4.099 2.506 1.32 4.229.741 4.229-1.421 0-2.448-6.139-4.677-7.375-2.678m-92.794 1.732c-3.4 1.846-5.205 7.229-4.585 13.676.554 5.763 3.486 9.392 8.377 10.369 2.558.511 3.734.078 6.5-2.393 3.241-2.896 3.377-3.306 3.377-10.182 0-6.827-.154-7.301-3.266-10.082-3.598-3.215-6.361-3.584-10.403-1.388m-49.579 1.006c-5.093 3.567-5.431 16.012-.568 20.876 2.743 2.742 7.801 3.469 11.261 1.617 4.621-2.473 5.867-12.42 2.411-19.249-2.423-4.789-8.685-6.339-13.104-3.244m-79.644 3.289c-.28.453.087 3.387.815 6.519 1.874 8.065-.298 8.671-3.363.939-3.026-7.632-6.795-6.299-4.571 1.617 2.999 10.678 2.425 12.042-1.936 4.6-2.9-4.948-4.09-5.533-5.058-2.484-.803 2.53.852 7.782 4.854 15.401 2.195 4.18 4.383 6.726 7.455 8.674 2.391 1.516 5.585 4.704 7.097 7.083 3.78 5.95 9.353 10.595 13.684 11.408 4.137.776 15.415-.182 16.648-1.415.451-.451 1.104-3.214 1.45-6.14l.63-5.32-2.906.742c-5.607 1.431-12.223 1.72-14.274.622-1.139-.609-3.228-3.083-4.642-5.496l-2.572-4.389 4.038-7.843c3.858-7.492 5.09-12.343 3.134-12.343-1.225 0-11.319 9.871-13.294 13-.868 1.375-1.923 2.167-2.344 1.761-.421-.407.639-2.999 2.355-5.76l3.121-5.02-1.937-6.273c-2.41-7.802-6.61-12.753-8.384-9.883m214.821-.06c-.86.59-15.008 24.762-32.213 55.037-2.939 5.17-2.345 6.761.69 1.85 1.174-1.9 2.837-3.723 3.696-4.053 2.707-1.039 7.795-.641 10.614.83 2.689 1.403 2.746 1.365 5.558-3.756 1.562-2.845 7.652-13.782 13.533-24.304C242.188 109.846 247 100.992 247 100.692c0-.516-10.317-6.709-11.122-6.677-.208.009-.86.346-1.449.75m-80.964 2.347c-.428 1.348-.091 2.69.932 3.714 1.471 1.47 1.735 1.47 3.206 0C159.63 98.799 158.585 95 156 95c-1.026 0-2.167.95-2.535 2.112m-48.806.335c-.961 2.503.402 4.686 2.718 4.356 1.517-.217 2.123-1.017 2.123-2.803 0-2.914-3.846-4.147-4.841-1.553m42.547 27.237c.501 2.873-7.167 4.448-20.015 4.112-10.725-.281-11.407-.425-13.208-2.796-1.526-2.009-2.24-2.289-3.631-1.429-2.613 1.616-2.655 2.969-.128 4.132 1.425.656 2.767 2.66 3.588 5.355 1.77 5.812 4.465 9.371 8.569 11.319 4.298 2.039 12.803 2.096 16.64.112 3.76-1.944 7.857-7.97 8.618-12.675.328-2.028 1.654-4.68 2.948-5.896 2.732-2.566 2.321-3.918-1.19-3.918-1.779 0-2.401.478-2.191 1.684M204 131c0 2.75.181 5 .401 5s1.384-1.666 2.585-3.701c2.075-3.517 2.096-3.766.408-5-2.89-2.113-3.394-1.563-3.394 3.701m-76.624 5.086c-1.719.498-3.661 1.553-4.317 2.343-.96 1.157-.731 1.74 1.176 2.99 4.205 2.754 7.906 2.865 12.715.38 2.448-1.264 4.622-2.859 4.831-3.543.839-2.736-7.909-4.053-14.405-2.17m68.883 9.693c-4.029.643-6.598 6.56-4.374 10.07.62.977 1.746-.209 4.092-4.31 1.781-3.112 3.077-5.761 2.88-5.888-.196-.127-1.366-.069-2.598.128m10.408 5.888c-1.679 1.679-.518 4.207 2.207 4.805 3.018.663 7.918 5.069 6.838 6.149-.346.346-2.457-.102-4.691-.996-11.412-4.566-14.888.611-4.389 6.537 5.987 3.378 7.374 4.822 4.677 4.87-2.288.04-5.309 2.293-5.309 3.958 0 1.911 8.658.653 11.864-1.724 4.948-3.669 8.435-9.772 8.845-15.481.428-5.966-.834-9.06-2.867-7.027-.966.966-.975 1.509-.042 2.442 1.397 1.397 1.615 4.8.307 4.8-.491 0-1.145-.657-1.453-1.46-1.038-2.705-8.821-7.54-12.137-7.54-1.751 0-3.484.3-3.85.667M93.041 163.959c-2.978 2.978-5.771 9.059-6.551 14.261-.781 5.204-1.96 5.926-7.36 4.506-4.33-1.139-6.356.476-3.802 3.031 1.201 1.201 3.422 1.767 7.148 1.822 2.974.043 6.111.664 6.973 1.379 1.013.841 3.165 1.12 6.086.791 3.724-.42 5.47-1.409 9.932-5.629 5.345-5.056 7.987-6.466 6.925-3.698-.72 1.874 1.152 5.264 3.643 6.597 1.533.82 3.058.591 6.655-1 3.178-1.406 4.991-1.738 5.688-1.041 2.568 2.568 11.498-.008 13.592-3.923 1.539-2.874 1.256-4.055-.97-4.055-1.1 0-2 .438-2 .974s-1.372 1.684-3.049 2.551c-2.845 1.472-3.264 1.445-6.25-.4l-3.201-1.978-3.932 2.373c-4.583 2.767-5.713 2.455-4.949-1.365.77-3.85-1.537-5.581-6.26-4.695-2.518.473-5.44 2.383-9.351 6.114-3.289 3.137-6.6 5.426-7.848 5.426-2.899 0-2.729-.65.982-3.773 5.554-4.673 8.868-15.817 5.658-19.027-1.809-1.809-5.557-1.443-7.759.759m90.62 18.013c-6.511 10.997-11.686 20.44-11.5 20.986s2.807 2.545 5.823 4.445c4.01 2.526 5.824 3.171 6.75 2.403.696-.578 1.266-1.558 1.267-2.178 0-.621 3.368-7.203 7.483-14.628 4.277-7.716 7.49-14.706 7.499-16.316.009-1.548.448-3.62.974-4.604.751-1.403.457-2.056-1.364-3.03-1.277-.684-2.945-2.554-3.707-4.157l-1.386-2.915zm-88.998-12.983c-2.591 3.079-5.109 9.91-4.038 10.955 1.056 1.03 6.355-6.321 6.988-9.694.856-4.564.101-4.887-2.95-1.261m104.066 24.615c-.401.401-.729 1.419-.729 2.263 0 1.125.296 1.237 1.113.421.611-.612.94-1.631.729-2.263s-.712-.822-1.113-.421m-51.058 10.12c-1.753.263-2.645.902-2.345 1.682.265.692 1.042 8.084 1.726 16.426L148.295 237l4.103-.033c2.596-.021 4.984-.768 6.505-2.034 2.372-1.975 2.394-2.155 1.722-14.217-.988-17.738-.991-17.747-5.992-17.566-2.273.082-5.406.341-6.962.574M164 207.5c0 5.164 1.449 6.003 2.375 1.375.943-4.716.77-5.875-.875-5.875-1.111 0-1.5 1.167-1.5 4.5m-68.925 7.75.184 11.25-5.38.531c-6.195.611-8.226 1.586-12.361 5.93-2.431 2.554-2.717 3.298-1.544 4.023 1.335.825 26.951.403 31.598-.521 1.972-.392 2.028-.764 1.161-7.687-.502-4.002-.652-11.213-.333-16.026l.578-8.75H94.892zm74.064 2.441c-1.15 4.23-1.957 7.825-1.793 7.989s2.741-1.903 5.726-4.593l5.428-4.89-2.937-3.098c-1.615-1.705-3.251-3.099-3.635-3.099s-1.639 3.461-2.789 7.691m-1.136 14.925c-2.202 1.989-4.003 3.927-4.003 4.305 0 .869 15.606.807 16.479-.066.897-.898-5.372-7.855-7.08-7.855-.766 0-3.195 1.627-5.396 3.616"/></svg>